<mxfile host="app.diagrams.net" modified="2023-11-30T09:30:49.725Z" agent="Mozilla/5.0 (Windows NT 10.0; Win64; x64) AppleWebKit/537.36 (KHTML, like Gecko) Chrome/119.0.0.0 Safari/537.36" etag="7arhT8FspuuFG14jpqpz" version="22.1.5" type="github">
  <diagram name="Page-1" id="bpHO0cZyAs_OB08XueaX">
    <mxGraphModel dx="696" dy="795" grid="1" gridSize="10" guides="1" tooltips="1" connect="1" arrows="1" fold="1" page="1" pageScale="1" pageWidth="827" pageHeight="1169" math="0" shadow="0">
      <root>
        <mxCell id="0" />
        <mxCell id="1" parent="0" />
        <mxCell id="taeoUXLbnrbZQF19BX-K-3" style="edgeStyle=orthogonalEdgeStyle;rounded=0;orthogonalLoop=1;jettySize=auto;html=1;entryX=0.5;entryY=0;entryDx=0;entryDy=0;" edge="1" parent="1" source="taeoUXLbnrbZQF19BX-K-1" target="taeoUXLbnrbZQF19BX-K-2">
          <mxGeometry relative="1" as="geometry" />
        </mxCell>
        <mxCell id="taeoUXLbnrbZQF19BX-K-1" value="Start" style="ellipse;whiteSpace=wrap;html=1;" vertex="1" parent="1">
          <mxGeometry x="240" y="30" width="120" height="80" as="geometry" />
        </mxCell>
        <mxCell id="taeoUXLbnrbZQF19BX-K-5" value="" style="edgeStyle=orthogonalEdgeStyle;rounded=0;orthogonalLoop=1;jettySize=auto;html=1;" edge="1" parent="1" source="taeoUXLbnrbZQF19BX-K-2" target="taeoUXLbnrbZQF19BX-K-4">
          <mxGeometry relative="1" as="geometry" />
        </mxCell>
        <mxCell id="taeoUXLbnrbZQF19BX-K-2" value="&lt;font style=&quot;font-size: 21px;&quot;&gt;Take 3 numbers a, b and c from the user&lt;/font&gt;" style="shape=parallelogram;perimeter=parallelogramPerimeter;whiteSpace=wrap;html=1;fixedSize=1;" vertex="1" parent="1">
          <mxGeometry x="184" y="150" width="230" height="90" as="geometry" />
        </mxCell>
        <mxCell id="taeoUXLbnrbZQF19BX-K-7" value="" style="edgeStyle=orthogonalEdgeStyle;rounded=0;orthogonalLoop=1;jettySize=auto;html=1;" edge="1" parent="1" source="taeoUXLbnrbZQF19BX-K-4" target="taeoUXLbnrbZQF19BX-K-6">
          <mxGeometry relative="1" as="geometry" />
        </mxCell>
        <mxCell id="taeoUXLbnrbZQF19BX-K-8" value="Yes" style="edgeLabel;html=1;align=center;verticalAlign=middle;resizable=0;points=[];" vertex="1" connectable="0" parent="taeoUXLbnrbZQF19BX-K-7">
          <mxGeometry x="-0.4497" y="-1" relative="1" as="geometry">
            <mxPoint x="1" as="offset" />
          </mxGeometry>
        </mxCell>
        <mxCell id="taeoUXLbnrbZQF19BX-K-10" value="" style="edgeStyle=orthogonalEdgeStyle;rounded=0;orthogonalLoop=1;jettySize=auto;html=1;" edge="1" parent="1" source="taeoUXLbnrbZQF19BX-K-4" target="taeoUXLbnrbZQF19BX-K-9">
          <mxGeometry relative="1" as="geometry" />
        </mxCell>
        <mxCell id="taeoUXLbnrbZQF19BX-K-11" value="No" style="edgeLabel;html=1;align=center;verticalAlign=middle;resizable=0;points=[];" vertex="1" connectable="0" parent="taeoUXLbnrbZQF19BX-K-10">
          <mxGeometry x="-0.4381" y="-3" relative="1" as="geometry">
            <mxPoint as="offset" />
          </mxGeometry>
        </mxCell>
        <mxCell id="taeoUXLbnrbZQF19BX-K-4" value="is a &amp;gt; b?" style="rhombus;whiteSpace=wrap;html=1;" vertex="1" parent="1">
          <mxGeometry x="234.5" y="300" width="131" height="120" as="geometry" />
        </mxCell>
        <mxCell id="taeoUXLbnrbZQF19BX-K-13" value="" style="edgeStyle=orthogonalEdgeStyle;rounded=0;orthogonalLoop=1;jettySize=auto;html=1;" edge="1" parent="1" source="taeoUXLbnrbZQF19BX-K-6" target="taeoUXLbnrbZQF19BX-K-12">
          <mxGeometry relative="1" as="geometry" />
        </mxCell>
        <mxCell id="taeoUXLbnrbZQF19BX-K-14" value="Yes" style="edgeLabel;html=1;align=center;verticalAlign=middle;resizable=0;points=[];" vertex="1" connectable="0" parent="taeoUXLbnrbZQF19BX-K-13">
          <mxGeometry x="-0.6857" y="-1" relative="1" as="geometry">
            <mxPoint as="offset" />
          </mxGeometry>
        </mxCell>
        <mxCell id="taeoUXLbnrbZQF19BX-K-16" value="" style="edgeStyle=orthogonalEdgeStyle;rounded=0;orthogonalLoop=1;jettySize=auto;html=1;" edge="1" parent="1" source="taeoUXLbnrbZQF19BX-K-6" target="taeoUXLbnrbZQF19BX-K-15">
          <mxGeometry relative="1" as="geometry" />
        </mxCell>
        <mxCell id="taeoUXLbnrbZQF19BX-K-20" value="No" style="edgeLabel;html=1;align=center;verticalAlign=middle;resizable=0;points=[];" vertex="1" connectable="0" parent="taeoUXLbnrbZQF19BX-K-16">
          <mxGeometry x="-0.6753" relative="1" as="geometry">
            <mxPoint as="offset" />
          </mxGeometry>
        </mxCell>
        <mxCell id="taeoUXLbnrbZQF19BX-K-6" value="is a &amp;gt; c?" style="rhombus;whiteSpace=wrap;html=1;" vertex="1" parent="1">
          <mxGeometry x="70" y="430" width="131" height="120" as="geometry" />
        </mxCell>
        <mxCell id="taeoUXLbnrbZQF19BX-K-18" value="" style="edgeStyle=orthogonalEdgeStyle;rounded=0;orthogonalLoop=1;jettySize=auto;html=1;" edge="1" parent="1" source="taeoUXLbnrbZQF19BX-K-9" target="taeoUXLbnrbZQF19BX-K-17">
          <mxGeometry relative="1" as="geometry" />
        </mxCell>
        <mxCell id="taeoUXLbnrbZQF19BX-K-22" value="Yes" style="edgeLabel;html=1;align=center;verticalAlign=middle;resizable=0;points=[];" vertex="1" connectable="0" parent="taeoUXLbnrbZQF19BX-K-18">
          <mxGeometry x="-0.2521" y="1" relative="1" as="geometry">
            <mxPoint as="offset" />
          </mxGeometry>
        </mxCell>
        <mxCell id="taeoUXLbnrbZQF19BX-K-19" style="edgeStyle=orthogonalEdgeStyle;rounded=0;orthogonalLoop=1;jettySize=auto;html=1;entryX=0.5;entryY=0;entryDx=0;entryDy=0;" edge="1" parent="1" source="taeoUXLbnrbZQF19BX-K-9" target="taeoUXLbnrbZQF19BX-K-15">
          <mxGeometry relative="1" as="geometry" />
        </mxCell>
        <mxCell id="taeoUXLbnrbZQF19BX-K-21" value="No" style="edgeLabel;html=1;align=center;verticalAlign=middle;resizable=0;points=[];" vertex="1" connectable="0" parent="taeoUXLbnrbZQF19BX-K-19">
          <mxGeometry x="-0.5319" y="-1" relative="1" as="geometry">
            <mxPoint x="1" as="offset" />
          </mxGeometry>
        </mxCell>
        <mxCell id="taeoUXLbnrbZQF19BX-K-9" value="is b &amp;gt; c?" style="rhombus;whiteSpace=wrap;html=1;" vertex="1" parent="1">
          <mxGeometry x="414" y="430" width="131" height="120" as="geometry" />
        </mxCell>
        <mxCell id="taeoUXLbnrbZQF19BX-K-26" style="edgeStyle=orthogonalEdgeStyle;rounded=0;orthogonalLoop=1;jettySize=auto;html=1;entryX=0;entryY=0.5;entryDx=0;entryDy=0;exitX=0.5;exitY=1;exitDx=0;exitDy=0;" edge="1" parent="1" source="taeoUXLbnrbZQF19BX-K-12" target="taeoUXLbnrbZQF19BX-K-23">
          <mxGeometry relative="1" as="geometry">
            <mxPoint x="60.00039215686276" y="709.9988235294118" as="sourcePoint" />
            <mxPoint x="169.01999999999998" y="829.94" as="targetPoint" />
          </mxGeometry>
        </mxCell>
        <mxCell id="taeoUXLbnrbZQF19BX-K-12" value="Display a is highest" style="shape=parallelogram;perimeter=parallelogramPerimeter;whiteSpace=wrap;html=1;fixedSize=1;" vertex="1" parent="1">
          <mxGeometry x="75.5" y="620" width="120" height="60" as="geometry" />
        </mxCell>
        <mxCell id="taeoUXLbnrbZQF19BX-K-24" style="edgeStyle=orthogonalEdgeStyle;rounded=0;orthogonalLoop=1;jettySize=auto;html=1;" edge="1" parent="1" source="taeoUXLbnrbZQF19BX-K-15" target="taeoUXLbnrbZQF19BX-K-23">
          <mxGeometry relative="1" as="geometry" />
        </mxCell>
        <mxCell id="taeoUXLbnrbZQF19BX-K-15" value="Display c" style="shape=parallelogram;perimeter=parallelogramPerimeter;whiteSpace=wrap;html=1;fixedSize=1;" vertex="1" parent="1">
          <mxGeometry x="240" y="620" width="120" height="60" as="geometry" />
        </mxCell>
        <mxCell id="taeoUXLbnrbZQF19BX-K-25" style="edgeStyle=orthogonalEdgeStyle;rounded=0;orthogonalLoop=1;jettySize=auto;html=1;entryX=1;entryY=0.5;entryDx=0;entryDy=0;" edge="1" parent="1" source="taeoUXLbnrbZQF19BX-K-17" target="taeoUXLbnrbZQF19BX-K-23">
          <mxGeometry relative="1" as="geometry">
            <Array as="points">
              <mxPoint x="480" y="770" />
            </Array>
          </mxGeometry>
        </mxCell>
        <mxCell id="taeoUXLbnrbZQF19BX-K-17" value="Display b" style="shape=parallelogram;perimeter=parallelogramPerimeter;whiteSpace=wrap;html=1;fixedSize=1;" vertex="1" parent="1">
          <mxGeometry x="419.5" y="620" width="120" height="60" as="geometry" />
        </mxCell>
        <mxCell id="taeoUXLbnrbZQF19BX-K-23" value="Stop" style="ellipse;whiteSpace=wrap;html=1;" vertex="1" parent="1">
          <mxGeometry x="239" y="730" width="120" height="80" as="geometry" />
        </mxCell>
      </root>
    </mxGraphModel>
  </diagram>
</mxfile>
